<?xml version="1.0" encoding="utf-8"?>
<!-- Generator: Adobe Illustrator 16.0.0, SVG Export Plug-In . SVG Version: 6.00 Build 0)  -->
<!DOCTYPE svg PUBLIC "-//W3C//DTD SVG 1.1//EN" "http://www.w3.org/Graphics/SVG/1.1/DTD/svg11.dtd">
<svg version="1.1" id="Layer_1" xmlns="http://www.w3.org/2000/svg" xmlns:xlink="http://www.w3.org/1999/xlink" x="0px" y="0px"
	 width="202px" height="202px" viewBox="0 0 202 202" enable-background="new 0 0 202 202" xml:space="preserve">
<g>
	<circle fill="#1A704C" cx="101" cy="100.947" r="100"/>
	<g>
		<path fill="#FFFFFF" d="M55.418,58.807c31.242-0.647,62.323-0.648,93.502-0.001c0,0.606,0.016,1.089-0.002,1.568
			c-0.625,17.163-1.244,34.326-1.882,51.487c-0.569,15.3-1.106,30.599-1.792,45.893c-0.115,2.559-0.665,5.169-1.452,7.613
			c-1.543,4.79-5.078,7.802-9.629,9.706c-5.033,2.104-10.363,2.925-15.729,3.479c-4.682,0.481-9.381,0.97-14.08,1.066
			c-4.647,0.096-9.334-0.04-13.956-0.543c-5.392-0.589-10.739-1.616-16.079-2.599c-1.516-0.277-2.974-0.979-4.4-1.619
			c-6.764-3.022-10.231-8.443-10.644-15.668c-0.577-10.141-0.837-20.297-1.231-30.445c-0.551-14.17-1.103-28.34-1.648-42.51
			c-0.333-8.679-0.653-17.358-0.977-26.037C55.405,59.809,55.418,59.419,55.418,58.807z M112.534,123.221
			c-0.108-0.031-0.218-0.063-0.326-0.096c-2.521,3.789-5.022,7.589-7.573,11.357c-0.639,0.943-0.57,1.735-0.031,2.703
			c2.27,4.056,4.474,8.146,6.709,12.223c0.021,0.035,0.166,0.004,0.24,0.004c0.143-1.653,0.284-3.299,0.409-4.753
			c2.306,0,4.45-0.079,6.587,0.021c3.163,0.146,5.383-1.097,6.971-3.889c2.299-4.044,4.817-7.963,7.235-11.939
			c0.207-0.34,0.354-0.716,0.463-0.936c-6.911,1.385-13.753-0.229-20.684,0.034C112.534,126.205,112.534,124.712,112.534,123.221z
			 M123.587,91.81c-1.419-2.757-2.753-5.315-4.055-7.891c-0.712-1.406-1.88-2.134-3.392-2.207c-4.902-0.234-9.809-0.413-14.711-0.6
			c-0.902-0.034-1.808-0.005-2.617-0.005c1.239,1.653,2.611,3.139,3.583,4.852c2.006,3.536,3.81,7.189,5.674,10.805
			c0.416,0.808,0.748,1.658,1.145,2.546c-1.494,0.843-2.837,1.601-4.271,2.409c0.248,0.127,0.322,0.195,0.399,0.2
			c4.703,0.269,9.405,0.563,14.112,0.745c0.502,0.02,1.218-0.52,1.516-0.998c2.26-3.62,4.439-7.288,6.639-10.944
			c0.184-0.305,0.322-0.636,0.65-1.291C126.536,90.308,125.16,91.009,123.587,91.81z M79.241,96.39
			c4.857,3.04,9.322,5.834,13.753,8.608c0.257-0.21,0.401-0.281,0.474-0.396c2.856-4.457,5.721-8.909,8.532-13.394
			c0.247-0.395,0.37-1.152,0.157-1.502c-1.318-2.166-2.499-4.498-4.202-6.331c-2.633-2.839-7.79-2.728-10.12,0.318
			C84.783,87.686,82.171,92.015,79.241,96.39z M115.49,111.02c0.3,0.656,0.556,1.285,0.863,1.889
			c1.631,3.182,3.241,6.374,4.924,9.527c2.317,4.352,3.104,4.729,8.061,4.15c0.244-0.027,0.482-0.097,0.727-0.117
			c5.394-0.458,8.313-5.635,6.102-10.389c-1.836-3.947-3.947-7.766-5.922-11.646c-0.447-0.879-1.001-0.672-1.686-0.313
			c-4.037,2.109-8.086,4.193-12.129,6.295C116.134,110.568,115.865,110.775,115.49,111.02z M98.543,119.098
			c0.06,0.109,0.122,0.219,0.182,0.327c-0.59,0.38-1.136,0.88-1.778,1.115c-2.294,0.838-4.578,1.769-6.945,2.325
			c-3.512,0.824-6.485,2.363-8.845,5.143c-2.286,2.691-2.848,6.316-1.16,8.819c0.207,0.307,0.657,0.448,0.994,0.668
			c0.035-0.382,0.144-0.772,0.091-1.144c-0.166-1.153-0.594-2.307-0.557-3.447c0.091-2.809,1.424-3.598,4.014-2.586
			c3.579,1.397,9.236,1.525,12.717-2.873c0.79-1,1.724-1.904,2.387-2.979c1.49-2.416,2.891-4.89,4.25-7.382
			c0.631-1.157,0.278-1.934-0.674-1.962c-3.906-0.119-7.817-0.175-11.716-0.411c-8.118-0.491-11.175,4.673-11.373,11.396
			c-0.008,0.26,0.148,0.522,0.301,1.025c2.633-2.73,5.833-3.967,9.237-4.854c2.173-0.565,4.31-1.285,6.438-2.012
			C96.952,119.979,97.732,119.493,98.543,119.098z M78.026,130.225c1.223-0.752,1.049-1.906,0.769-3.113
			c-0.285-1.223-0.751-2.459-0.746-3.686c0.01-2.16-0.96-3.607-2.82-4.375c-1.744-0.72-3.577-1.313-5.428-1.646
			c-1.149-0.206-2.418,0.101-3.606,0.316c-0.665,0.122-0.984,0.576-0.778,1.426c1.322,5.442,5.502,8.188,10.876,7.028
			c0.975-0.21,1.592,0.103,1.709,1.046C78.116,128.145,78.026,129.096,78.026,130.225z"/>
		<path fill="#FFFFFF" d="M101.097,54.992c-15.344-0.644-30.687-1.286-46.031-1.934c-0.538-0.023-1.073-0.116-1.61-0.168
			c-2.681-0.252-2.681-0.251-2.681-2.891c0-2.994,0.043-5.988-0.023-8.981c-0.023-1.067,0.308-1.557,1.369-1.819
			c10.946-2.698,22.014-4.41,33.324-4.112C86.6,35.119,87,34.78,87.271,33.642c2.466-10.394,13.693-14.583,22.432-8.411
			c3.137,2.215,5.326,5.197,6.755,8.723c0.417,1.03,0.946,1.368,2.05,1.359c8.553-0.064,17.066,0.395,25.424,2.401
			c2.043,0.491,4.037,1.189,6.07,1.732c0.898,0.24,1.262,0.684,1.248,1.645c-0.049,3.481-0.04,6.964-0.007,10.445
			c0.009,0.952-0.363,1.234-1.294,1.301c-16.258,1.171-32.533,1.82-48.834,1.76C101.109,54.729,101.103,54.86,101.097,54.992z
			 M101.375,35.454c1.699-0.555,3.398-0.88,4.867-1.648c1.71-0.896,1.615-2.482,0.005-3.589c-2.405-1.654-7.358-1.673-9.814-0.034
			c-1.679,1.118-1.753,2.771,0.043,3.68C97.958,34.609,99.659,34.916,101.375,35.454z"/>
	</g>
</g>
</svg>
